Vishwaroopam 2013 Hindi Movies Good Quality CamRip Sample Included ~ rDX

Screen Shots :
 
http://myimghosting.serveftp.com/Vishwaroopam.html
 
http://myimghost.cwahi.net/Vishwaroopam.html


Format                                   : MPEG-PS
File size                                : 741 MiB
Duration                                 : 2h 19mn
Overall bit rate mode                    : Variable
Overall bit rate                         : 742 Kbps

Video
ID                                       : 224 (0xE0)
Format                                   : MPEG Video
Format version                           : Version 2
Format settings, BVOP                    : Yes
Format settings, Matrix                  : Custom
Format settings, GOP                     : M=3, N=18
Duration                                 : 2h 19mn
Bit rate mode                            : Variable
Bit rate                                 : 663 Kbps
Maximum bit rate                         : 656 Kbps
Width                                    : 352 pixels
Height                                   : 288 pixels
Display aspect ratio                     : 1.222
Frame rate                               : 25.000 fps
Standard                                 : PAL
Color space                              : YUV
Bit depth                                : 8 bits
Scan type                                : Progressive
Compression mode                         : Lossy
Bits/(Pixel*Frame)                       : 0.262
Stream size                              : 662 MiB (89%)

Audio
ID                                       : 192 (0xC0)
Format                                   : MPEG Audio
Format version                           : Version 1
Format profile                           : Layer 2
Duration                                 : 2h 19mn
Bit rate mode                            : Constant
Bit rate                                 : 64.0 Kbps
Channel(s)                               : 2 channels
Sampling rate                            : 48.0 KHz
Compression mode                         : Lossy
Stream size                              : 63.9 MiB (9%)